# xmcd CD database file
#
# Track frame offsets:
#	182
#	15565
#	29772
#	43850
#	59690
#	76977
#	92257
#	104302
#	116032
#	129915
#	140937
#	154932
#	168155
#	184220
#	195962
#
# Disc length: 2795 seconds
#
# Revision: 0
# Processed by: cddbd v1.5.1PL0 Copyright (c) Steve Scherf et al.
# Submitted via: CDex 1.51
#
DISCID=c90ae90f
DTITLE=Jean Kiktess - Grand Hotel - Piano Barr
DYEAR=1991
DGENRE=Jazz
TTITLE0=Les feuilles mortes
TTITLE1=Ne me quitte pas
TTITLE2=La vie en rose
TTITLE3=Un homme et une femme
TTITLE4=La mer
TTITLE5=L'hymne à l'Amour
TTITLE6=La Javanaise
TTITLE7=La ballade de Johnny Jane
TTITLE8=Elle voulait chanter Cabaret
TTITLE9=C'est si bon
TTITLE10=Que reste-t-il de nos Amours?
TTITLE11=C'est en septembre
TTITLE12=Si j'étais un homme
TTITLE13=La bohême 
TTITLE14=Chez Laurette
EXTD=YEAR: 1991
EXTT0=
EXTT1=
EXTT2=
EXTT3=
EXTT4=
EXTT5=
EXTT6=
EXTT7=
EXTT8=
EXTT9=
EXTT10=
EXTT11=
EXTT12=
EXTT13=
EXTT14=
PLAYORDER=
